<svg xmlns="http://www.w3.org/2000/svg" viewBox="0 0 141.732 141.732" fill="#ffffff" role="img" aria-label="Visa">
  <path d="M62.322 102.086H50.698l6.607-40.724h11.624l-6.607 40.724zm48.643-40.724l-2.453 11.782-.53 2.7c-2.457-3.357-6.45-5.458-11.08-5.458-10.57 0-17.62 8.133-17.62 19.823 0 8.87 4.88 14.678 12.47 14.678 5.87 0 9.13-2.47 12.17-6.23l-.67 4.21h10.24l7.73-40.5h-10.77zm-15.67 26.24c0-5.37 3.27-9.15 8.47-9.15 4.34 0 7.5 2.78 7.5 7.5 0 5.47-3.4 9.32-9.02 9.32-4.1 0-6.95-2.84-6.95-7.67zm-34.94-26.24h10.07l-8.36 40.724H52.68l6.607-40.724zm-16.29 0h-11.24l6.607 40.724h11.24l-6.607-40.724zm-43.89 0L9.34 102.086H21.5l1.15-6.98h14.38l1.05 6.98h12.48l-9.42-40.724H21.38zm4.28 8.37l3.25 17.48h9.74l-3.25-17.48h-9.74z"/>
</svg>
